#N canvas 1055 64 539 310 12;
#X obj 177 103 inlet~;
#X obj 177 132 sigmund~ -hop 512;
#X obj 177 161 mtof;
#X obj 177 190 sig~;
#X obj 177 248 outlet~;
#X obj 293 190 sig~;
#X obj 293 248 outlet~;
#X obj 50 132 r tab_bang;
#X obj 67 183 clip 0 127;
#X obj 404 105 inlet;
#X obj 404 134 metro 100;
#X obj 177 219 lop~ 1000;
#X text 44 29 pitch and loudness extraction using sigmund~. Both signals
are low-passed at 1000Hz to prevent quantization artifacts., f 52
;
#X obj 293 219 lop~ 1000;
#X obj 263 106 tabwrite~ oscillo2;
#X obj 40 235 tabwrite~ pitch2;
#X obj 373 248 tabwrite~ loudness2;
#X connect 0 0 1 0;
#X connect 0 0 14 0;
#X connect 1 0 2 0;
#X connect 1 0 8 0;
#X connect 1 1 5 0;
#X connect 2 0 3 0;
#X connect 3 0 11 0;
#X connect 5 0 13 0;
#X connect 7 0 15 0;
#X connect 8 0 15 0;
#X connect 9 0 10 0;
#X connect 10 0 14 0;
#X connect 10 0 15 0;
#X connect 10 0 16 0;
#X connect 11 0 4 0;
#X connect 13 0 6 0;
#X connect 13 0 16 0;
